<?xml version="1.0" standalone="no"?>
<!DOCTYPE svg PUBLIC "-//W3C//DTD SVG 20010904//EN"
 "http://www.w3.org/TR/2001/REC-SVG-20010904/DTD/svg10.dtd">
<svg version="1.0" xmlns="http://www.w3.org/2000/svg"
 width="974.000000pt" height="473.000000pt" viewBox="0 0 974.000000 473.000000"
 preserveAspectRatio="xMidYMid meet">

<g transform="translate(0.000000,473.000000) scale(0.100000,-0.100000)"
fill="#000000" stroke="none">
<path d="M60 2740 l0 -1950 1800 0 1800 0 0 75 0 75 -1725 0 -1725 0 0 1800 0
1800 4650 0 4650 0 0 -1800 0 -1800 -1725 0 -1725 0 0 -75 0 -75 1800 0 1800
0 0 1950 0 1950 -4800 0 -4800 0 0 -1950z"/>
<path d="M2860 3320 l0 -59 93 -3 92 -3 0 -365 0 -365 -127 -3 -128 -3 0 -59
0 -60 338 2 337 3 0 55 0 55 -115 5 -115 5 -3 428 -2 427 -185 0 -185 0 0 -60z"/>
<path d="M3920 3310 l0 -70 90 0 90 0 0 70 0 70 -90 0 -90 0 0 -70z"/>
<path d="M5430 2913 c0 -258 -3 -478 -6 -490 -6 -23 -5 -23 84 -23 101 0 102
1 102 85 l0 40 19 -30 c66 -108 209 -137 316 -64 83 57 126 170 126 329 0 162
-31 252 -106 319 -88 77 -235 65 -314 -26 l-41 -46 0 187 0 186 -90 0 -90 0 0
-467z m376 75 c12 -5 32 -29 45 -52 20 -35 24 -58 27 -151 5 -129 -7 -181 -49
-230 -26 -30 -38 -35 -74 -35 -87 0 -135 73 -143 216 -10 201 73 310 194 252z"/>
<path d="M1930 2845 l0 -445 330 0 330 0 0 75 0 75 -235 0 -235 0 0 115 0 115
205 0 205 0 0 75 0 75 -205 0 -205 0 0 105 0 105 225 0 225 0 0 75 0 75 -320
0 -320 0 0 -445z"/>
<path d="M6340 2845 l0 -445 300 0 300 0 0 75 0 75 -205 0 -205 0 0 370 0 370
-95 0 -95 0 0 -445z"/>
<path d="M7140 2845 l0 -445 71 0 70 0 -3 371 c-2 204 0 359 4 343 4 -16 33
-129 65 -251 l57 -223 71 0 72 0 51 193 c28 105 56 218 62 250 6 31 12 57 13
57 1 0 1 -166 -1 -370 l-3 -370 70 0 71 0 0 445 0 445 -108 0 -107 0 -48 -177
c-26 -98 -51 -200 -56 -226 -12 -66 -17 -67 -25 -5 -3 29 -28 132 -54 228
l-48 175 -112 3 -112 3 0 -446z"/>
<path d="M4753 3120 c-102 -22 -167 -79 -193 -170 l-8 -27 90 -7 c50 -3 94 -3
99 0 5 3 9 14 9 25 0 35 44 69 89 69 63 0 93 -33 99 -107 l4 -60 -120 -6
c-139 -7 -203 -28 -252 -83 -74 -85 -61 -254 25 -320 49 -37 129 -51 201 -35
52 11 66 20 115 71 l55 58 12 -44 c16 -60 56 -84 139 -84 95 0 111 9 111 64 0
45 0 46 -31 46 -62 0 -61 0 -67 227 -5 182 -9 214 -27 253 -25 54 -64 93 -118
116 -46 19 -172 27 -232 14z m187 -425 c0 -61 -19 -103 -64 -143 -62 -55 -136
-42 -157 27 -15 50 -5 102 24 128 28 26 45 30 130 32 l67 1 0 -45z"/>
<path d="M3730 3050 l0 -59 93 -3 92 -3 0 -230 0 -230 -127 -3 -128 -3 0 -59
0 -60 338 2 337 3 0 55 0 55 -115 5 -115 5 -3 293 -2 292 -185 0 -185 0 0 -60z"/>
<path d="M4020 1642 c-48 -24 -60 -53 -60 -149 l0 -83 900 0 900 0 0 83 c0 96
-12 125 -60 149 -32 17 -94 18 -840 18 -746 0 -808 -1 -840 -18z"/>
<path d="M3960 710 c0 -602 1 -620 19 -630 27 -14 1735 -14 1762 0 18 10 19
28 19 630 l0 620 -900 0 -900 0 0 -620z m640 253 c36 -37 87 -92 115 -121 l49
-52 -119 -120 c-66 -66 -128 -123 -138 -126 -22 -7 -47 12 -47 36 0 10 46 61
102 113 l101 95 -96 103 c-53 57 -97 111 -97 121 0 22 30 39 50 28 8 -5 44
-39 80 -77z m687 -369 c3 -9 2 -24 -4 -33 -9 -14 -43 -16 -260 -19 -268 -3
-283 0 -268 48 6 19 13 20 266 20 231 0 260 -2 266 -16z"/>
</g>
</svg>
